<?xml version="1.0" standalone="no"?>
<!DOCTYPE svg PUBLIC "-//W3C//DTD SVG 20010904//EN"
 "http://www.w3.org/TR/2001/REC-SVG-20010904/DTD/svg10.dtd">
<svg version="1.0" xmlns="http://www.w3.org/2000/svg"
 width="350.000000pt" height="350.000000pt" viewBox="0 0 350.000000 350.000000"
 preserveAspectRatio="xMidYMid meet">
<metadata>
Created by potrace 1.11, written by Peter Selinger 2001-2013
</metadata>
<g transform="translate(0.000000,350.000000) scale(0.100000,-0.100000)"
fill="#000000" stroke="none">
<path d="M2593 3072 c-18 -2 -33 -9 -34 -15 -1 -12 -2 -20 -14 -83 -8 -43 -91
-133 -148 -160 -40 -18 -60 -21 -115 -17 -79 7 -129 7 -157 0 -33 -7 -76 -26
-89 -40 -19 -18 -44 -70 -49 -98 -9 -50 -36 -98 -79 -140 -47 -47 -111 -75
-243 -105 -67 -15 -105 -36 -105 -57 0 -5 -9 -28 -20 -51 -11 -23 -43 -97 -71
-166 -94 -229 -177 -398 -218 -445 -9 -11 -24 -31 -33 -46 -9 -14 -40 -51 -69
-83 -44 -49 -51 -61 -41 -74 39 -55 43 -84 20 -167 -29 -102 -30 -112 -12
-129 21 -21 32 -20 73 7 61 41 91 57 97 56 4 0 10 3 13 8 7 11 119 65 124 61
2 -2 10 2 18 8 12 9 73 33 102 40 4 1 8 2 10 4 3 2 24 7 62 15 17 3 39 9 50
12 11 3 29 7 40 9 18 2 36 5 135 20 19 3 55 7 80 9 88 8 210 22 260 31 14 2
41 7 60 10 19 3 43 7 52 10 9 3 26 7 37 9 44 10 57 14 100 29 24 9 50 21 58
27 7 6 13 9 13 6 0 -5 65 27 156 77 25 14 71 48 119 89 18 15 37 27 41 27 13
0 162 156 206 215 21 28 41 55 45 60 27 36 78 140 101 205 52 147 49 325 -9
465 -7 17 -12 33 -11 38 1 4 -2 7 -8 7 -5 0 -10 6 -10 13 0 7 -9 23 -20 35
-11 12 -20 25 -20 29 0 11 -107 113 -145 139 -71 48 -183 90 -268 100 -23 3
-43 6 -46 7 -4 2 -21 1 -38 -1z"/>
<path d="M964 1439 c-3 -5 -10 -7 -15 -4 -5 4 -9 2 -9 -3 0 -5 -10 -14 -22
-20 -13 -6 -50 -26 -84 -45 -107 -60 -185 -81 -299 -79 -87 1 -106 -2 -145
-21 -26 -14 -58 -42 -75 -66 -26 -37 -30 -51 -30 -110 0 -59 4 -73 28 -104 15
-20 52 -48 83 -63 31 -15 62 -33 70 -41 14 -15 35 -80 39 -123 1 -14 3 -31 3
-39 1 -7 20 -30 42 -51 45 -42 112 -66 163 -56 53 10 123 60 151 109 21 35 86
208 99 262 1 6 14 28 27 50 47 73 49 79 41 120 -10 57 -5 109 17 167 13 32 7
87 -10 104 -17 17 -66 25 -74 13z"/>
</g>
</svg>
